<?xml version="1.0" encoding="UTF-8" standalone="no"?>
<!-- Created with Inkscape (http://www.inkscape.org/) -->

<svg
   xmlns:dc="http://purl.org/dc/elements/1.1/"
   xmlns:cc="http://creativecommons.org/ns#"
   xmlns:rdf="http://www.w3.org/1999/02/22-rdf-syntax-ns#"
   xmlns:svg="http://www.w3.org/2000/svg"
   xmlns="http://www.w3.org/2000/svg"
   xmlns:sodipodi="http://sodipodi.sourceforge.net/DTD/sodipodi-0.dtd"
   xmlns:inkscape="http://www.inkscape.org/namespaces/inkscape"
   id="svg9558"
   sodipodi:docname="logo.svg"
   viewBox="0 0 766.28 350.4"
   version="1.1"
   inkscape:version="0.92.3 (2405546, 2018-03-11)">
  <defs
     id="defs3767" />
  <sodipodi:namedview
     id="namedview9562"
     bordercolor="#666666"
     inkscape:pageshadow="2"
     inkscape:window-y="217"
     pagecolor="#ffffff"
     inkscape:window-height="747"
     inkscape:window-maximized="0"
     inkscape:zoom="0.18"
     inkscape:window-x="113"
     showgrid="false"
     borderopacity="1.0"
     inkscape:current-layer="layer1"
     inkscape:cx="199.6607"
     inkscape:cy="346.05955"
     inkscape:window-width="1290"
     inkscape:pageopacity="0.0"
     inkscape:document-units="in" />
  <g
     id="layer1"
     inkscape:label="Layer 1"
     inkscape:groupmode="layer"
     transform="translate(2.5842 -641.23)">
    <g
       id="g4714">
      <path
         inkscape:connector-curvature="0"
         d="m 441.91243,870.7098 c -251.52708,87.55395 -203.82826,371.3949 -203.82826,371.3949 l -113.8266,3.4387"
         style="fill:none;stroke:#000000;stroke-width:38.82447815;stroke-linecap:round;stroke-linejoin:round"
         sodipodi:nodetypes="ccc"
         id="path9208-6" />
      <path
         inkscape:connector-curvature="0"
         d="M 224.4812,1246.6333 C -27.04584,1159.0793 20.65296,875.23837 20.65296,875.23837 l -113.8266,-3.4387"
         style="fill:none;stroke:#000000;stroke-width:38.82447815;stroke-linecap:round;stroke-linejoin:round"
         sodipodi:nodetypes="ccc"
         id="path9208-2-2" />
      <path
         inkscape:connector-curvature="0"
         d="M 41.077018,832.89527 C -210.45006,920.44922 -162.75124,1204.2901 -162.75124,1204.2901 l -113.8266,3.4388"
         style="fill:none;stroke:#000000;stroke-width:38.82447815;stroke-linecap:round;stroke-linejoin:round"
         sodipodi:nodetypes="ccc"
         id="path9208-2-7-4" />
      <ellipse
         id="path8672-1-3"
         style="fill:none;stroke:#000000;stroke-width:53.02010345"
         transform="matrix(0.99998669,-0.00515918,0.00563581,0.99998412,0,0)"
         cx="939.13953"
         cy="806.04572"
         rx="478.66446"
         ry="280.42517" />
      <path
         id="path9208"
         sodipodi:nodetypes="ccc"
         style="fill:none;stroke:#000000;stroke-width:38.82447815;stroke-linecap:round;stroke-linejoin:round"
         d="M 41.077012,832.89527 C -210.45006,745.34131 -162.75125,461.50041 -162.75125,461.50041 l -113.81028,-3.4366"
         inkscape:connector-curvature="0" />
      <ellipse
         id="path8672-1"
         style="fill:#ffffff;stroke:#000000;stroke-width:38.76227951"
         transform="matrix(0.99840745,-0.05641416,0.0691985,0.99760291,0,0)"
         cx="68.003479"
         cy="854.64795"
         rx="353.87421"
         ry="202.09645" />
      <path
         id="path9208-2-7"
         sodipodi:nodetypes="ccc"
         style="fill:none;stroke:#000000;stroke-width:38.82447815;stroke-linecap:round;stroke-linejoin:round"
         d="M 314.81622,913.82401 C 566.3433,1001.378 518.64448,1285.2189 518.64448,1285.2189 l 113.8266,3.4388"
         inkscape:connector-curvature="0" />
      <ellipse
         id="path8672"
         style="fill:#ffffff;stroke:#000000;stroke-width:39.76230621"
         transform="matrix(0.76082408,0.64895818,-0.7581663,0.65206124,0,0)"
         cx="361.81442"
         cy="937.89374"
         rx="260.5621"
         ry="290.52991" />
      <path
         id="path9254"
         sodipodi:nodetypes="cc"
         style="fill:#ffffff;stroke:#000000;stroke-width:32.6517334"
         d="m -685.9649,989.62586 c 0,0 132.20932,95.46054 237.97733,0"
         inkscape:connector-curvature="0" />
      <g
         id="g9504"
         transform="matrix(3.71571,0,0,3.3535999,-89.878384,1161.9519)">
        <path
           id="path9300"
           sodipodi:nodetypes="cc"
           style="fill:none;stroke:#000000;stroke-width:12.63700008;stroke-linecap:round"
           d="m -122.25842,-159.40755 c 0,0 -39.01654,-80.84797 54.443517,-138.45788"
           inkscape:connector-curvature="0" />
        <path
           id="path9300-0"
           sodipodi:nodetypes="cc"
           style="fill:none;stroke:#000000;stroke-width:12.63700008;stroke-linecap:round;stroke-linejoin:round"
           d="m -159.23566,-136.87954 c 0,0 -24.49621,-87.57015 -127.16601,-54.38191"
           inkscape:connector-curvature="0" />
      </g>
      <path
         id="path9512"
         sodipodi:nodetypes="cc"
         style="fill:none;stroke:#000000;stroke-width:53.01998901"
         d="m 1286.7156,595.67141 c -132.9137,98.5976 -200.1321,222.60618 -52.8826,429.57109"
         inkscape:connector-curvature="0" />
      <path
         id="path9512-5"
         sodipodi:nodetypes="cc"
         style="fill:none;stroke:#000000;stroke-width:53.01998901"
         d="M 772.95658,544.61382 C 640.26042,660.37954 573.15625,805.9894 720.16097,1048.9793"
         inkscape:connector-curvature="0" />
      <path
         id="path9512-5-8"
         sodipodi:nodetypes="cc"
         style="fill:none;stroke:#000000;stroke-width:51.82109451;stroke-linecap:round"
         d="M 1015.2583,533.88682 C 881.46336,653.79851 813.79892,804.61477 962.0248,1056.3189"
         inkscape:connector-curvature="0" />
      <ellipse
         style="fill:none;stroke-width:9.5999999;stroke-miterlimit:4;stroke-dasharray:none"
         ry="108.33334"
         rx="77.777779"
         cy="811.0744"
         cx="-485.91751"
         id="path3789" />
      <ellipse
         ry="116.05801"
         rx="74.391335"
         cy="827.74109"
         cx="-502.5842"
         id="path4596"
         style="fill:none;stroke:#000000;stroke-width:38.3999996;stroke-miterlimit:4;stroke-dasharray:none;stroke-opacity:1" />
      <ellipse
         ry="48.240681"
         rx="23.240683"
         cy="833.29669"
         cx="-485.91757"
         id="path4598"
         style="fill:#000000;fill-opacity:1;stroke:#000000;stroke-width:25.25197029;stroke-miterlimit:4;stroke-dasharray:none;stroke-opacity:1" />
      <g
         transform="matrix(16.015753,0,0,15.006408,-675.74529,-806.99704)"
         id="Layer_1">
        <path
           style="fill:#000000"
           inkscape:connector-curvature="0"
           d="M 55.225,0 C 54.963,-0.006 54.68,0.059 54.321,0.181 39.493,4.515 24.649,8.885 9.856,13.283 6.641,29.614 3.301,45.785 0.053,62.029 -0.051,62.496 -0.033,62.612 0.397,62.988 13.122,74.073 26.053,85.049 38.828,96 53.752,90.422 68.677,84.859 83.664,79.259 84.442,78.887 84.591,78.821 84.677,78.065 88.467,61.876 92.212,45.638 95.938,29.453 82.927,19.771 69.74,10.222 56.561,0.582 56.024,0.203 55.659,0.011 55.222,0.002 Z"
           id="path909" />
        <path
           style="fill:#ffffff"
           inkscape:connector-curvature="0"
           d="M 54.872,1.857 C 54.61,1.851 54.326,1.916 53.967,2.038 L 14.164,13.725 c -0.331,0.078 -0.312,0.167 -0.036,0.38 L 49.46,42.312 c 0.651,0.539 0.957,0.606 1.864,0.325 l 39.62,-13.731 c 0.909,-0.334 0.972,-0.416 0.036,-1.032 L 56.207,2.438 C 55.67,2.06 55.305,1.867 54.868,1.859 Z"
           id="path903" />
        <path
           style="fill:#000000"
           inkscape:connector-curvature="0"
           d="m 50.331,5.276 c 0.792,-0.006 1.629,0.082 2.496,0.272 3.47,0.76 5.93,2.88 5.482,4.722 -0.448,1.841 -3.622,2.714 -7.092,1.954 -3.469,-0.761 -5.93,-2.863 -5.482,-4.704 0.336,-1.381 2.218,-2.232 4.596,-2.244 z"
           id="path901" />
        <path
           style="fill:#000000"
           inkscape:connector-curvature="0"
           d="m 27.897,12.097 c 0.792,-0.006 1.647,0.081 2.514,0.272 3.47,0.76 5.912,2.862 5.464,4.703 -0.448,1.842 -3.622,2.733 -7.092,1.972 -3.469,-0.76 -5.912,-2.88 -5.464,-4.722 0.336,-1.38 2.2,-2.213 4.578,-2.225 z"
           id="path899" />
        <path
           style="fill:#000000"
           inkscape:connector-curvature="0"
           d="m 61.891,13.834 c 0.792,-0.006 1.647,0.099 2.514,0.289 3.47,0.761 5.912,2.863 5.464,4.704 -0.448,1.841 -3.623,2.715 -7.092,1.954 -3.469,-0.76 -5.912,-2.863 -5.464,-4.704 0.336,-1.381 2.2,-2.231 4.578,-2.243 z"
           id="path897" />
        <path
           style="fill:#ffffff"
           inkscape:connector-curvature="0"
           d="m 11.668,16.023 c -0.072,0.019 -0.096,0.132 -0.144,0.362 L 2.55,61.27 c -0.104,0.467 -0.086,0.583 0.344,0.959 l 34.085,29.382 c 0.793,0.758 0.96,0.748 1.068,-0.18 L 47.979,45.912 C 48.187,45.291 47.973,44.95 47.617,44.663 L 12.029,16.244 C 11.846,16.089 11.74,16.008 11.668,16.027 Z"
           id="path895" />
        <path
           style="fill:#000000"
           inkscape:connector-curvature="0"
           d="m 39.35,21.143 c 0.793,-0.006 1.648,0.081 2.515,0.271 3.469,0.761 5.912,2.863 5.464,4.704 -0.448,1.842 -3.623,2.715 -7.092,1.954 -3.47,-0.76 -5.912,-2.862 -5.464,-4.704 0.336,-1.38 2.199,-2.213 4.577,-2.225 z"
           id="path893" />
        <path
           style="fill:#000000"
           inkscape:connector-curvature="0"
           d="m 73.708,22.645 c 0.792,-0.006 1.647,0.081 2.515,0.271 3.469,0.761 5.911,2.863 5.463,4.704 -0.448,1.841 -3.622,2.733 -7.092,1.972 -3.469,-0.761 -5.912,-2.881 -5.464,-4.722 0.337,-1.381 2.2,-2.213 4.578,-2.225 z"
           id="path891" />
        <path
           style="fill:#000000"
           inkscape:connector-curvature="0"
           d="m 13.876,24.291 c 0.134,-0.013 0.281,-0.007 0.417,0 1.632,0.086 3.4,1.617 4.432,4.071 1.376,3.272 0.917,6.944 -1.013,8.195 -1.93,1.251 -4.613,-0.382 -5.988,-3.654 -1.376,-3.272 -0.918,-6.945 1.013,-8.196 0.362,-0.234 0.739,-0.376 1.14,-0.416 z"
           id="path889" />
        <path
           style="fill:#000000"
           inkscape:connector-curvature="0"
           d="m 51.165,30.189 c 0.793,-0.006 1.647,0.081 2.515,0.271 3.469,0.761 5.912,2.863 5.463,4.704 -0.448,1.841 -3.622,2.715 -7.092,1.954 -3.469,-0.76 -5.911,-2.862 -5.463,-4.704 0.336,-1.38 2.199,-2.213 4.577,-2.225 z"
           id="path887" />
        <path
           style="fill:#ffffff"
           inkscape:connector-curvature="0"
           d="m 92.795,31.437 c -0.076,0.016 -0.183,0.043 -0.307,0.091 l -40.69,14.114 c -0.829,0.341 -0.804,0.481 -0.941,1.104 l -9.914,45.375 c -0.034,0.668 -0.28,0.972 0.506,0.615 l 40.093,-14.98 c 0.778,-0.372 0.927,-0.437 1.014,-1.194 L 92.958,31.82 c 0.087,-0.315 0.066,-0.427 -0.162,-0.38 z"
           id="path885" />
        <path
           style="fill:#000000"
           inkscape:connector-curvature="0"
           d="m 86.192,38.801 c 1.145,0.018 2.044,0.576 2.442,1.646 0.796,2.141 -0.736,5.568 -3.437,7.653 -2.701,2.085 -5.537,2.033 -6.332,-0.109 -0.796,-2.141 0.736,-5.568 3.437,-7.653 1.351,-1.042 2.744,-1.556 3.89,-1.537 z"
           id="path883" />
        <path
           style="fill:#000000"
           inkscape:connector-curvature="0"
           d="m 36.873,42.727 c 1.653,0.042 3.457,1.596 4.505,4.088 1.376,3.273 0.935,6.945 -0.995,8.196 -1.93,1.251 -4.613,-0.4 -5.988,-3.673 -1.376,-3.272 -0.918,-6.926 1.013,-8.177 0.362,-0.235 0.738,-0.377 1.14,-0.416 0.108,-0.012 0.215,-0.021 0.325,-0.018 z"
           id="path881" />
        <path
           style="fill:#000000"
           inkscape:connector-curvature="0"
           d="m 22.345,47.973 c 1.654,0.043 3.457,1.597 4.505,4.089 1.376,3.272 0.935,6.945 -0.995,8.196 -1.93,1.251 -4.612,-0.401 -5.988,-3.673 -1.376,-3.272 -0.917,-6.926 1.013,-8.177 0.362,-0.235 0.739,-0.377 1.14,-0.417 0.108,-0.011 0.215,-0.02 0.325,-0.018 z"
           id="path879" />
        <path
           style="fill:#000000"
           inkscape:connector-curvature="0"
           d="m 8.211,52.282 c 0.134,-0.014 0.281,-0.007 0.417,0 1.632,0.086 3.382,1.634 4.414,4.088 1.376,3.273 0.935,6.927 -0.995,8.178 -1.93,1.251 -4.613,-0.382 -5.988,-3.655 -1.376,-3.272 -0.917,-6.944 1.013,-8.195 0.362,-0.235 0.739,-0.377 1.14,-0.416 z"
           id="path877" />
        <path
           style="fill:#000000"
           inkscape:connector-curvature="0"
           d="m 70.923,57.508 c 1.121,0.036 2.015,0.592 2.406,1.646 0.796,2.141 -0.754,5.568 -3.455,7.653 -2.701,2.085 -5.537,2.032 -6.332,-0.109 -0.796,-2.141 0.754,-5.568 3.455,-7.653 1.182,-0.912 2.387,-1.42 3.438,-1.519 0.169,-0.016 0.328,-0.023 0.488,-0.018 z"
           id="path875" />
        <path
           style="fill:#000000"
           inkscape:connector-curvature="0"
           d="m 30.536,71.152 c 0.134,-0.014 0.28,-0.007 0.416,0 1.633,0.086 3.401,1.616 4.433,4.07 1.375,3.272 0.917,6.945 -1.014,8.196 -1.93,1.251 -4.594,-0.382 -5.97,-3.655 -1.376,-3.272 -0.935,-6.944 0.995,-8.195 0.362,-0.235 0.739,-0.377 1.14,-0.416 z"
           id="path873" />
        <path
           style="fill:#000000"
           inkscape:connector-curvature="0"
           d="m 54.351,76.74 c 1.146,0.018 2.045,0.557 2.442,1.628 0.796,2.141 -0.736,5.568 -3.437,7.653 -2.701,2.084 -5.537,2.05 -6.332,-0.091 -0.796,-2.141 0.736,-5.568 3.437,-7.653 1.351,-1.042 2.744,-1.556 3.89,-1.538 z"
           id="path3924" />
      </g>
      <path
         id="path9208-2"
         sodipodi:nodetypes="ccc"
         style="fill:none;stroke:#000000;stroke-width:38.82447815;stroke-linecap:round;stroke-linejoin:round"
         d="M 41.077018,832.89527 C 292.60414,745.34377 244.89984,461.50046 244.89984,461.50046 l 113.8266,-3.4388"
         inkscape:connector-curvature="0" />
    </g>
  </g>
  <metadata
     id="metadata3764">
    <rdf:RDF>
      <cc:Work>
        <dc:format>image/svg+xml</dc:format>
        <dc:type
           rdf:resource="http://purl.org/dc/dcmitype/StillImage" />
        <cc:license
           rdf:resource="http://creativecommons.org/licenses/publicdomain/" />
        <dc:publisher>
          <cc:Agent
             rdf:about="http://openclipart.org/">
            <dc:title>Openclipart</dc:title>
          </cc:Agent>
        </dc:publisher>
        <dc:title></dc:title>
        <dc:date>2010-07-30T19:31:38</dc:date>
        <dc:description>My first clipart. I'm attempting to make a &quot;kid friendly&quot; ant.  Feel free to improve it!</dc:description>
        <dc:source>https://openclipart.org/detail/75535/ant-line-art-by-gammillian</dc:source>
        <dc:creator>
          <cc:Agent>
            <dc:title>gammillian</dc:title>
          </cc:Agent>
        </dc:creator>
        <dc:subject>
          <rdf:Bag>
            <rdf:li>ant</rdf:li>
            <rdf:li>black and white</rdf:li>
            <rdf:li>coloring book</rdf:li>
            <rdf:li>insect</rdf:li>
            <rdf:li>line art</rdf:li>
            <rdf:li>outline</rdf:li>
          </rdf:Bag>
        </dc:subject>
      </cc:Work>
      <cc:License
         rdf:about="http://creativecommons.org/licenses/publicdomain/">
        <cc:permits
           rdf:resource="http://creativecommons.org/ns#Reproduction" />
        <cc:permits
           rdf:resource="http://creativecommons.org/ns#Distribution" />
        <cc:permits
           rdf:resource="http://creativecommons.org/ns#DerivativeWorks" />
      </cc:License>
    </rdf:RDF>
  </metadata>
</svg>
